<?xml version="1.0" encoding="utf-8"?>
<!-- Generator: Adobe Illustrator 24.1.0, SVG Export Plug-In . SVG Version: 6.00 Build 0)  -->
<svg version="1.1" id="图层_1" xmlns="http://www.w3.org/2000/svg" xmlns:xlink="http://www.w3.org/1999/xlink" x="0px" y="0px"
	 viewBox="0 0 900 900" style="enable-background:new 0 0 900 900;" xml:space="preserve">
<style type="text/css">
	.st0{fill:none;}
	.st1{fill:#FFFFFF;}
</style>
<g>
	<rect id="canvas_background" x="-1" y="-1" class="st0" width="902" height="902"/>
</g>
<g>
	<path id="svg_1" class="st1" d="M743.2,258.6h-81.4c-7.8,0-14.8-4.4-18.3-11.4l-26.3-52.9c-10.4-21-31.5-34.1-55-34.1H350.6
		c-23.4,0-44.5,13-55,34l-26.4,52.9c-3.5,7-10.5,11.4-18.3,11.4h-81.3c-33.9,0-61.4,27.5-61.4,61.4v344.4
		c0,33.9,27.5,61.4,61.4,61.4h573.5c33.9,0,61.4-27.5,61.4-61.4V320C804.6,286.1,776.9,258.6,743.2,258.6L743.2,258.6z M763.6,664.3
		c0,11.3-9.2,20.5-20.5,20.5H169.5c-11.3,0-20.5-9.2-20.5-20.5V320c0-11.3,9.2-20.5,20.5-20.5h81.3c23.4,0,44.5-13,55-34l26.4-52.9
		c3.5-7,10.5-11.4,18.3-11.4H562c7.8,0,14.8,4.3,18.3,11.4l26.3,52.8c10.4,21,31.5,34.1,55,34.1h81.4c11.3,0,20.5,9.2,20.5,20.5
		v344.3H763.6L763.6,664.3z"/>
	<path id="svg_2" class="st1" d="M691.9,328c-13.9,0-25.3,11.3-25.3,25.2s11.4,25.3,25.3,25.3s25.3-11.3,25.3-25.3
		C717,339.3,705.8,328,691.9,328L691.9,328z M456.6,312.5c-90.1,0-163.4,73.3-163.4,163.4s73.3,163.4,163.4,163.4
		S620.1,566.1,620.1,476S546.8,312.5,456.6,312.5L456.6,312.5z M456.6,598.3c-67.5,0-122.5-54.9-122.5-122.5
		c0-67.5,54.9-122.5,122.5-122.5s122.5,54.9,122.5,122.5C579,543.5,524.1,598.3,456.6,598.3L456.6,598.3z"/>
</g>
</svg>
