<svg width="900" height="900" xmlns="http://www.w3.org/2000/svg" class="icon">
 <defs>
  <style type="text/css"/>
 </defs>
 <g>
  <title>background</title>
  <rect fill="none" id="canvas_background" height="902" width="902" y="-1" x="-1"/>
 </g>
 <g>
  <title>Layer 1</title>
  <path stroke="null" id="svg_1" fill="#E98300" d="m743.15574,258.577609l-81.408,0c-7.7824,0 -14.848,-4.4032 -18.3296,-11.3664l-26.3168,-52.9408c-10.4448,-20.992 -31.5392,-34.0992 -54.9888,-34.0992l-211.5584,0c-23.4496,0 -44.544,13.0048 -54.9888,33.9968l-26.4192,52.9408c-3.4816,6.9632 -10.5472,11.3664 -18.3296,11.3664l-81.3056,0c-33.8944,0 -61.44,27.5456 -61.44,61.44l0,344.3712c0,33.8944 27.5456,61.44 61.44,61.44l573.5424,0c33.8944,0 61.44,-27.5456 61.44,-61.44l0,-344.2688c0.1024,-33.8944 -27.5456,-61.44 -61.3376,-61.44zm20.48,405.7088c0,11.264 -9.216,20.48 -20.48,20.48l-573.6448,0c-11.264,0 -20.48,-9.216 -20.48,-20.48l0,-344.2688c0,-11.264 9.216,-20.48 20.48,-20.48l81.3056,0c23.4496,0 44.544,-13.0048 54.9888,-33.9968l26.4192,-52.9408c3.4816,-6.9632 10.5472,-11.3664 18.3296,-11.3664l211.456,0c7.7824,0 14.848,4.3008 18.3296,11.3664l26.3168,52.8384c10.4448,20.992 31.5392,34.0992 54.9888,34.0992l81.408,0c11.264,0 20.48,9.216 20.48,20.48l0,344.2688l0.1024,0z"/>
  <path id="svg_2" fill="#E98300" d="m691.85334,328.004809c-13.9264,0 -25.2928,11.264 -25.2928,25.1904c0,13.9264 11.3664,25.2928 25.2928,25.2928s25.2928,-11.264 25.2928,-25.2928c-0.1024,-13.9264 -11.3664,-25.1904 -25.2928,-25.1904zm-235.2128,-15.4624c-90.112,0 -163.4304,73.3184 -163.4304,163.4304s73.3184,163.4304 163.4304,163.4304s163.4304,-73.3184 163.4304,-163.4304s-73.3184,-163.4304 -163.4304,-163.4304zm0,285.7984c-67.4816,0 -122.4704,-54.8864 -122.4704,-122.4704c0,-67.4816 54.8864,-122.4704 122.4704,-122.4704s122.4704,54.8864 122.4704,122.4704c-0.1024,67.584 -54.9888,122.4704 -122.4704,122.4704z"/>
 </g>
</svg>