<?xml version="1.0" encoding="utf-8"?>
<!-- Generator: Adobe Illustrator 24.1.0, SVG Export Plug-In . SVG Version: 6.00 Build 0)  -->
<svg version="1.1" id="图层_1" xmlns="http://www.w3.org/2000/svg" xmlns:xlink="http://www.w3.org/1999/xlink" x="0px" y="0px"
	 viewBox="0 0 1024 1024" style="enable-background:new 0 0 1024 1024;" xml:space="preserve">
<style type="text/css">
	.st0{fill:none;}
	.st1{fill:#FFFFFF;}
</style>
<g>
	<rect id="canvas_background" x="-1" y="-1" class="st0" width="582" height="402"/>
</g>
<g>
	<path id="svg_1" class="st1" d="M550.4,438.1l-64,0.2V118.1h64V438.1L550.4,438.1z"/>
	<path id="svg_2" class="st1" d="M678.5,219.4V297c76.2,51.1,124.8,138,124.8,236.7c0,157.3-127.5,284.8-284.9,284.8
		S233.5,691,233.5,533.7c0-97.5,49.1-183.6,123.8-234.9v-78.1c-113.4,58.4-191,176.7-191,313c0,194.4,157.6,351.9,352.1,351.9
		s352.1-157.6,352.1-351.9C870.5,396.3,793.3,277.3,678.5,219.4L678.5,219.4z"/>
</g>
</svg>
