<svg width="900.0000000000001" height="900.0000000000001" xmlns="http://www.w3.org/2000/svg" class="icon">
 <defs>
  <style type="text/css"/>
 </defs>
 <g>
  <title>background</title>
  <rect fill="none" id="canvas_background" height="902" width="902" y="-1" x="-1"/>
 </g>
 <g>
  <title>Layer 1</title>
  <path id="svg_1" fill="#E98300" d="m493.755718,378.11819l-64.013,0.153l0,-320.218l64.013,0l0,320.065z"/>
  <path id="svg_2" fill="#E98300" d="m621.790718,159.37619l0,77.663c76.248,51.099 124.833,138.029 124.833,236.683c0,157.269 -127.543,284.761 -284.875,284.761s-284.874,-127.491 -284.874,-284.76c0,-97.523 49.054,-183.582 123.833,-234.905l0,-78.114c-113.439,58.433 -191.016,176.668 -191.016,313.019c0,194.358 157.622,351.917 352.057,351.917s352.058,-157.559 352.058,-351.917c0,-137.393 -77.16,-256.391 -192.016,-314.347z"/>
 </g>
</svg>