<svg width="1024" height="1024" xmlns="http://www.w3.org/2000/svg" class="icon">
 <defs>
  <style type="text/css"/>
 </defs>
 <g>
  <title>background</title>
  <rect fill="none" id="canvas_background" height="1026" width="1026" y="-1" x="-1"/>
 </g>
 <g>
  <title>Layer 1</title>
  <path stroke="null" id="svg_1" fill="#E98300" d="m827.475558,670.833091l-304.37479,0c-10.290767,-44.562481 -46.598331,-77.499968 -89.863033,-77.499968c-43.192232,0 -79.572267,32.937486 -89.863033,77.499968l-118.851109,0c-12.827223,0 -23.19046,11.544266 -23.19046,25.833323c0,14.289057 10.363237,25.833323 23.19046,25.833323l118.851109,0c10.290767,44.562481 46.598331,77.499968 89.863033,77.499968c43.192232,0 79.572267,-32.937486 89.863033,-77.499968l304.37479,0c12.827223,0 23.19046,-11.544266 23.19046,-25.833323c0,-14.289057 -10.363237,-25.833323 -23.19046,-25.833323zm-394.237823,78.307259c-26.016798,0 -47.105622,-23.492178 -47.105622,-52.473936s21.088825,-52.473936 47.105622,-52.473936s47.105622,23.492178 47.105622,52.473936s-21.088825,52.473936 -47.105622,52.473936z"/>
  <path stroke="null" id="svg_2" fill="#E98300" d="m835.237456,456.666632l-120.071344,0c-10.396421,-44.274979 -47.076753,-76.999964 -90.78565,-76.999964s-80.389229,32.724985 -90.78565,76.999964l-307.499783,0c-12.958919,0 -23.428555,11.469786 -23.428555,25.666655c0,14.196868 10.469635,25.666655 23.428555,25.666655l307.499783,0c10.396421,44.274979 47.076753,76.999964 90.78565,76.999964s80.389229,-32.724985 90.78565,-76.999964l120.071344,0c12.958919,0 23.428555,-11.469786 23.428555,-25.666655c0,-14.196868 -10.469635,-25.666655 -23.428555,-25.666655zm-210.856994,77.802047c-26.28391,0 -47.589252,-23.340614 -47.589252,-52.135392s21.305342,-52.135392 47.589252,-52.135392s47.589252,23.340614 47.589252,52.135392s-21.305342,52.135392 -47.589252,52.135392z"/>
  <path stroke="null" id="svg_3" fill="#E98300" d="m233.714062,299.1668l118.118968,0c10.227374,41.687476 46.311278,72.499958 89.309464,72.499958c42.926162,0 79.08209,-30.812482 89.309464,-72.499958l302.499797,0c12.748206,0 23.047604,-10.799473 23.047604,-24.166653c0,-13.36718 -10.299398,-24.166653 -23.047604,-24.166653l-302.499797,0c-10.227374,-41.687476 -46.311278,-72.499958 -89.309464,-72.499958c-42.926162,0 -79.08209,30.812482 -89.309464,72.499958l-118.118968,0c-12.748206,0 -23.047604,10.799473 -23.047604,24.166653c0,13.36718 10.299398,24.166653 23.047604,24.166653zm207.428432,-73.255166c25.85653,0 46.815445,21.97655 46.815445,49.088513s-20.958915,49.088513 -46.815445,49.088513s-46.815445,-21.97655 -46.815445,-49.088513s20.958915,-49.088513 46.815445,-49.088513z"/>
 </g>
</svg>