<?xml version="1.0" encoding="utf-8"?>
<!-- Generator: Adobe Illustrator 24.1.0, SVG Export Plug-In . SVG Version: 6.00 Build 0)  -->
<svg version="1.1" id="图层_1" xmlns="http://www.w3.org/2000/svg" xmlns:xlink="http://www.w3.org/1999/xlink" x="0px" y="0px"
	 viewBox="0 0 1024 1024" style="enable-background:new 0 0 1024 1024;" xml:space="preserve">
<style type="text/css">
	.st0{fill:none;}
	.st1{fill:#FFFFFF;}
</style>
<g>
	<rect id="canvas_background" x="-1" y="-1" class="st0" width="1026" height="1026"/>
</g>
<g>
	<path id="svg_1" class="st1" d="M827.5,670.8H523.1c-10.3-44.6-46.6-77.5-89.9-77.5c-43.2,0-79.6,32.9-89.9,77.5H224.5
		c-12.8,0-23.2,11.5-23.2,25.8s10.4,25.8,23.2,25.8h118.9c10.3,44.6,46.6,77.5,89.9,77.5c43.2,0,79.6-32.9,89.9-77.5h304.4
		c12.8,0,23.2-11.5,23.2-25.8S840.3,670.8,827.5,670.8L827.5,670.8z M433.2,749.1c-26,0-47.1-23.5-47.1-52.5s21.1-52.5,47.1-52.5
		s47.1,23.5,47.1,52.5S459.3,749.1,433.2,749.1z"/>
	<path id="svg_2" class="st1" d="M835.2,456.7H715.2c-10.4-44.3-47.1-77-90.8-77s-80.4,32.7-90.8,77H226.1
		c-13,0-23.4,11.5-23.4,25.7s10.5,25.7,23.4,25.7h307.5c10.4,44.3,47.1,77,90.8,77s80.4-32.7,90.8-77h120.1
		c13,0,23.4-11.5,23.4-25.7S848.2,456.7,835.2,456.7L835.2,456.7z M624.4,534.5c-26.3,0-47.6-23.3-47.6-52.1s21.3-52.1,47.6-52.1
		s47.6,23.3,47.6,52.1S650.7,534.5,624.4,534.5z"/>
	<path id="svg_3" class="st1" d="M233.7,299.2h118.1c10.2,41.7,46.3,72.5,89.3,72.5c42.9,0,79.1-30.8,89.3-72.5H833
		c12.7,0,23-10.8,23-24.2s-10.3-24.2-23-24.2H530.5c-10.2-41.7-46.3-72.5-89.3-72.5c-42.9,0-79.1,30.8-89.3,72.5H233.7
		c-12.7,0-23,10.8-23,24.2S221,299.2,233.7,299.2L233.7,299.2z M441.1,225.9c25.9,0,46.8,22,46.8,49.1s-21,49.1-46.8,49.1
		s-46.8-22-46.8-49.1S415.3,225.9,441.1,225.9L441.1,225.9z"/>
</g>
</svg>
